<svg width="166" height="30" viewBox="0 0 166 30" fill="none" xmlns="http://www.w3.org/2000/svg">
<path d="M5.55402 29.6214C2.48662 29.6214 9.43327e-07 27.1348 8.09246e-07 24.0674L0 5.55402C-1.3408e-07 2.48662 2.48662 9.43327e-07 5.55402 8.09246e-07L24.0674 0C27.1348 -1.3408e-07 29.6214 2.48662 29.6214 5.55402V24.0674C29.6214 27.1348 27.1348 29.6214 24.0674 29.6214H5.55402Z" fill="white"/>
<path d="M4.81349 24.0674L4.81348 5.18369H8.88643V12.589H15.9215L15.9215 16.662H8.88643L8.88643 24.0674H4.81349Z" fill="#007BFC"/>
<path d="M24.808 24.0674H12.5891V19.9944H24.808V24.0674Z" fill="#007BFC"/>
<path d="M12.5891 9.25663L24.808 9.25663V5.18368L12.5891 5.18368V9.25663Z" fill="#007BFC"/>
<path d="M24.808 16.662H19.9945L19.9945 12.589H24.808V16.662Z" fill="#007BFC"/>
<path d="M51.7694 6.41587V9.09365H47.3617V22.9565H44.0441V9.09365H39.6364V6.41587H51.7694Z" fill="white"/>
<path d="M66.394 16.108C66.394 16.5819 66.3624 17.0085 66.2992 17.3877H56.7019C56.7809 18.3355 57.1126 19.078 57.6972 19.6152C58.2817 20.1523 59.0005 20.4209 59.8536 20.4209C61.0859 20.4209 61.9627 19.8917 62.484 18.8332H66.0623C65.6831 20.097 64.9564 21.1397 63.8821 21.9612C62.8079 22.7669 61.4887 23.1698 59.9247 23.1698C58.6609 23.1698 57.5234 22.8933 56.5123 22.3404C55.517 21.7716 54.735 20.9738 54.1663 19.9469C53.6134 18.9201 53.3369 17.7352 53.3369 16.3924C53.3369 15.0337 53.6134 13.841 54.1663 12.8141C54.7192 11.7872 55.4933 10.9973 56.4886 10.4444C57.4839 9.89145 58.6293 9.61498 59.9247 9.61498C61.1728 9.61498 62.2865 9.88355 63.266 10.4207C64.2613 10.9578 65.0275 11.724 65.5646 12.7193C66.1176 13.6988 66.394 14.8284 66.394 16.108ZM62.9579 15.1601C62.9421 14.307 62.6341 13.6277 62.0338 13.1222C61.4334 12.6008 60.6988 12.3402 59.8299 12.3402C59.0084 12.3402 58.3133 12.5929 57.7446 13.0985C57.1916 13.5882 56.852 14.2754 56.7256 15.1601H62.9579Z" fill="white"/>
<path d="M73.8394 23.1698C72.7651 23.1698 71.8014 22.9802 70.9483 22.601C70.0952 22.2061 69.4159 21.6768 68.9104 21.0133C68.4206 20.3498 68.1521 19.6152 68.1047 18.8095H71.446C71.5092 19.315 71.754 19.7337 72.1806 20.0654C72.6229 20.3972 73.168 20.5631 73.8157 20.5631C74.4476 20.5631 74.9373 20.4367 75.2849 20.1839C75.6483 19.9311 75.8299 19.6073 75.8299 19.2123C75.8299 18.7858 75.6088 18.4698 75.1664 18.2644C74.7399 18.0433 74.0527 17.8063 73.1048 17.5535C72.1253 17.3166 71.3196 17.0717 70.6877 16.8189C70.0715 16.5662 69.5344 16.1791 69.0762 15.6578C68.6339 15.1364 68.4127 14.4334 68.4127 13.5487C68.4127 12.822 68.6181 12.1585 69.0289 11.5582C69.4554 10.9578 70.0557 10.4839 70.8298 10.1363C71.6197 9.78876 72.5439 9.61498 73.6024 9.61498C75.1664 9.61498 76.4145 10.0099 77.3466 10.7998C78.2786 11.5739 78.7921 12.6245 78.8869 13.9516H75.7115C75.6641 13.4302 75.4429 13.0195 75.0479 12.7193C74.6688 12.4033 74.1553 12.2454 73.5076 12.2454C72.9073 12.2454 72.4412 12.356 72.1095 12.5771C71.7935 12.7983 71.6355 13.1064 71.6355 13.5013C71.6355 13.9437 71.8567 14.2833 72.2991 14.5203C72.7414 14.7415 73.4286 14.9705 74.3607 15.2075C75.3086 15.4445 76.0906 15.6894 76.7067 15.9421C77.3229 16.1949 77.8521 16.5898 78.2944 17.127C78.7526 17.6483 78.9896 18.3434 79.0054 19.2123C79.0054 19.9706 78.7921 20.65 78.3655 21.2503C77.9548 21.8506 77.3545 22.3246 76.5646 22.6721C75.7904 23.0039 74.882 23.1698 73.8394 23.1698Z" fill="white"/>
<path d="M85.0463 5.42059V22.9565H81.7287V5.42059H85.0463Z" fill="white"/>
<path d="M87.471 16.345C87.471 15.0179 87.7316 13.841 88.253 12.8141C88.7901 11.7872 89.5089 10.9973 90.4094 10.4444C91.3257 9.89145 92.3447 9.61498 93.4664 9.61498C94.4458 9.61498 95.2989 9.81246 96.0257 10.2074C96.7682 10.6024 97.3606 11.1 97.8029 11.7003V9.82826H101.144V22.9565H97.8029V21.037C97.3764 21.6531 96.784 22.1666 96.0257 22.5773C95.2831 22.9723 94.4221 23.1698 93.4427 23.1698C92.3368 23.1698 91.3257 22.8854 90.4094 22.3167C89.5089 21.7479 88.7901 20.9501 88.253 19.9232C87.7316 18.8806 87.471 17.6878 87.471 16.345ZM97.8029 16.3924C97.8029 15.5867 97.645 14.8995 97.329 14.3307C97.013 13.7462 96.5865 13.3038 96.0494 13.0037C95.5122 12.6877 94.9356 12.5297 94.3195 12.5297C93.7033 12.5297 93.1346 12.6798 92.6133 12.98C92.0919 13.2801 91.6654 13.7225 91.3336 14.307C91.0177 14.8758 90.8597 15.5551 90.8597 16.345C90.8597 17.1349 91.0177 17.83 91.3336 18.4303C91.6654 19.0149 92.0919 19.4651 92.6133 19.7811C93.1504 20.097 93.7191 20.255 94.3195 20.255C94.9356 20.255 95.5122 20.1049 96.0494 19.8048C96.5865 19.4888 97.013 19.0465 97.329 18.4777C97.645 17.8932 97.8029 17.1981 97.8029 16.3924Z" fill="white"/>
<path d="M103.579 14.6625C103.579 13.0353 103.942 11.5818 104.669 10.3022C105.411 9.00676 106.415 8.00358 107.678 7.29266C108.958 6.56595 110.388 6.20259 111.968 6.20259C113.816 6.20259 115.435 6.67654 116.825 7.62442C118.216 8.57231 119.187 9.88355 119.74 11.5582H115.925C115.546 10.7682 115.009 10.1758 114.314 9.78086C113.634 9.38591 112.844 9.18844 111.944 9.18844C110.98 9.18844 110.119 9.41751 109.361 9.87565C108.618 10.318 108.034 10.9499 107.607 11.7714C107.197 12.5929 106.991 13.5566 106.991 14.6625C106.991 15.7525 107.197 16.7162 107.607 17.5535C108.034 18.375 108.618 19.0149 109.361 19.473C110.119 19.9153 110.98 20.1365 111.944 20.1365C112.844 20.1365 113.634 19.939 114.314 19.5441C115.009 19.1333 115.546 18.533 115.925 17.7431H119.74C119.187 19.4335 118.216 20.7526 116.825 21.7005C115.451 22.6326 113.832 23.0987 111.968 23.0987C110.388 23.0987 108.958 22.7432 107.678 22.0323C106.415 21.3056 105.411 20.3024 104.669 19.0228C103.942 17.7431 103.579 16.2897 103.579 14.6625Z" fill="white"/>
<path d="M128.403 23.1698C127.14 23.1698 126.002 22.8933 124.991 22.3404C123.98 21.7716 123.182 20.9738 122.598 19.9469C122.029 18.9201 121.744 17.7352 121.744 16.3924C121.744 15.0495 122.037 13.8647 122.621 12.8378C123.222 11.8109 124.035 11.021 125.062 10.4681C126.089 9.89935 127.234 9.61498 128.498 9.61498C129.762 9.61498 130.907 9.89935 131.934 10.4681C132.961 11.021 133.767 11.8109 134.351 12.8378C134.952 13.8647 135.252 15.0495 135.252 16.3924C135.252 17.7352 134.944 18.9201 134.328 19.9469C133.727 20.9738 132.906 21.7716 131.863 22.3404C130.836 22.8933 129.683 23.1698 128.403 23.1698ZM128.403 20.2787C129.004 20.2787 129.565 20.1365 130.086 19.8522C130.623 19.552 131.05 19.1096 131.366 18.5251C131.681 17.9406 131.839 17.2297 131.839 16.3924C131.839 15.1443 131.508 14.1885 130.844 13.525C130.196 12.8457 129.399 12.506 128.451 12.506C127.503 12.506 126.705 12.8457 126.057 13.525C125.425 14.1885 125.109 15.1443 125.109 16.3924C125.109 17.6404 125.418 18.6041 126.034 19.2834C126.666 19.9469 127.455 20.2787 128.403 20.2787Z" fill="white"/>
<path d="M153.989 9.63868C155.6 9.63868 156.896 10.1363 157.875 11.1316C158.871 12.1111 159.368 13.4855 159.368 15.2549V22.9565H156.051V15.7052C156.051 14.6783 155.79 13.8963 155.269 13.3591C154.747 12.8062 154.036 12.5297 153.136 12.5297C152.235 12.5297 151.517 12.8062 150.98 13.3591C150.458 13.8963 150.198 14.6783 150.198 15.7052V22.9565H146.88V15.7052C146.88 14.6783 146.619 13.8963 146.098 13.3591C145.577 12.8062 144.866 12.5297 143.965 12.5297C143.049 12.5297 142.322 12.8062 141.785 13.3591C141.264 13.8963 141.003 14.6783 141.003 15.7052V22.9565H137.685V9.82826H141.003V11.416C141.43 10.863 141.975 10.4286 142.638 10.1126C143.317 9.79666 144.06 9.63868 144.866 9.63868C145.893 9.63868 146.809 9.85985 147.615 10.3022C148.42 10.7288 149.044 11.3449 149.487 12.1506C149.913 11.3923 150.529 10.784 151.335 10.3259C152.156 9.86775 153.041 9.63868 153.989 9.63868Z" fill="white"/>
<path d="M163.986 23.1224C163.385 23.1224 162.888 22.9407 162.493 22.5773C162.114 22.1982 161.924 21.7321 161.924 21.1792C161.924 20.6263 162.114 20.1681 162.493 19.8048C162.888 19.4256 163.385 19.236 163.986 19.236C164.57 19.236 165.052 19.4256 165.431 19.8048C165.81 20.1681 166 20.6263 166 21.1792C166 21.7321 165.81 22.1982 165.431 22.5773C165.052 22.9407 164.57 23.1224 163.986 23.1224Z" fill="white"/>
</svg>
