<svg width="50" height="50" viewBox="0 0 50 50" fill="none" xmlns="http://www.w3.org/2000/svg">
<rect x="0.5" y="0.5" width="49" height="49" rx="14.5" stroke="white" stroke-opacity="0.2"/>
<path d="M25.0008 16C22.5566 16 22.2498 16.0107 21.2898 16.0544C20.3317 16.0983 19.6777 16.2499 19.1054 16.4725C18.5135 16.7024 18.0113 17.0099 17.5111 17.5103C17.0104 18.0106 16.7029 18.5127 16.4723 19.1044C16.2492 19.6769 16.0973 20.3311 16.0542 21.2888C16.0113 22.2488 16 22.5557 16 25C16 27.4443 16.0109 27.7501 16.0544 28.7101C16.0984 29.6682 16.2501 30.3222 16.4725 30.8944C16.7026 31.4864 17.0101 31.9885 17.5105 32.4888C18.0106 32.9894 18.5127 33.2976 19.1043 33.5275C19.6769 33.7501 20.3311 33.9018 21.2891 33.9456C22.2491 33.9893 22.5556 34 24.9997 34C27.4442 34 27.75 33.9893 28.71 33.9456C29.6681 33.9018 30.3229 33.7501 30.8955 33.5275C31.4873 33.2976 31.9887 32.9894 32.4887 32.4888C32.9894 31.9885 33.2969 31.4864 33.5275 30.8946C33.7487 30.3222 33.9006 29.668 33.9456 28.7103C33.9888 27.7503 34 27.4443 34 25C34 22.5557 33.9888 22.249 33.9456 21.289C33.9006 20.3309 33.7487 19.6769 33.5275 19.1046C33.2969 18.5127 32.9894 18.0106 32.4887 17.5103C31.9881 17.0097 31.4875 16.7022 30.895 16.4725C30.3212 16.2499 29.6668 16.0983 28.7087 16.0544C27.7487 16.0107 27.4431 16 24.998 16H25.0008ZM24.1935 17.6219C24.4331 17.6215 24.7005 17.6219 25.0008 17.6219C27.4039 17.6219 27.6887 17.6305 28.6376 17.6736C29.5151 17.7138 29.9914 17.8604 30.3086 17.9836C30.7287 18.1467 31.0281 18.3417 31.3429 18.6567C31.6579 18.9717 31.8529 19.2717 32.0164 19.6917C32.1396 20.0086 32.2864 20.4848 32.3264 21.3623C32.3695 22.3111 32.3789 22.5961 32.3789 24.9979C32.3789 27.3998 32.3695 27.6848 32.3264 28.6336C32.2862 29.5111 32.1396 29.9873 32.0164 30.3042C31.8533 30.7242 31.6579 31.0233 31.3429 31.3381C31.0279 31.6531 30.7288 31.8481 30.3086 32.0112C29.9918 32.1349 29.5151 32.2812 28.6376 32.3213C27.6889 32.3644 27.4039 32.3738 25.0008 32.3738C22.5976 32.3738 22.3128 32.3644 21.3641 32.3213C20.4865 32.2808 20.0103 32.1342 19.6929 32.011C19.2728 31.8479 18.9728 31.6529 18.6578 31.3379C18.3428 31.0229 18.1478 30.7236 17.9843 30.3034C17.8611 29.9866 17.7143 29.5103 17.6744 28.6328C17.6313 27.6841 17.6226 27.3991 17.6226 24.9957C17.6226 22.5923 17.6313 22.3088 17.6744 21.3601C17.7145 20.4826 17.8611 20.0063 17.9843 19.6891C18.1475 19.2691 18.3428 18.9691 18.6578 18.6541C18.9728 18.3391 19.2728 18.1441 19.6929 17.9806C20.0101 17.8568 20.4865 17.7106 21.3641 17.6703C22.1943 17.6328 22.5161 17.6215 24.1935 17.6196V17.6219ZM29.805 19.1162C29.2088 19.1162 28.725 19.5994 28.725 20.1959C28.725 20.7921 29.2088 21.2759 29.805 21.2759C30.4013 21.2759 30.885 20.7921 30.885 20.1959C30.885 19.5996 30.4013 19.1159 29.805 19.1159V19.1162ZM25.0008 20.3781C22.4484 20.3781 20.3789 22.4476 20.3789 25C20.3789 27.5524 22.4484 29.6209 25.0008 29.6209C27.5533 29.6209 29.622 27.5524 29.622 25C29.622 22.4476 27.5531 20.3781 25.0007 20.3781H25.0008ZM25.0008 22C26.6576 22 28.0009 23.3431 28.0009 25C28.0009 26.6567 26.6576 28 25.0008 28C23.3439 28 22.0008 26.6567 22.0008 25C22.0008 23.3431 23.3439 22 25.0008 22Z" fill="white"/>
</svg>
